<?xml version="1.0" standalone="no"?>
<!DOCTYPE svg PUBLIC "-//W3C//DTD SVG 20010904//EN"
 "http://www.w3.org/TR/2001/REC-SVG-20010904/DTD/svg10.dtd">
<svg version="1.0" xmlns="http://www.w3.org/2000/svg"
 width="1024.000000pt" height="667.000000pt" viewBox="0 0 1024.000000 667.000000"
 preserveAspectRatio="xMidYMid meet">
<metadata>
Created by potrace 1.16, written by Peter Selinger 2001-2019
</metadata>
<g transform="translate(0.000000,667.000000) scale(0.100000,-0.100000)"
fill="#000000" stroke="none">
<path d="M5428 6599 c-27 -15 -22 -35 16 -64 44 -33 135 -53 170 -37 58 26 23
66 -79 92 -93 23 -85 22 -107 9z"/>
<path d="M4802 6586 c-88 -28 -117 -67 -66 -86 68 -26 209 25 202 73 -3 19
-10 22 -48 24 -25 1 -64 -4 -88 -11z"/>
<path d="M5133 6520 c-12 -5 -55 -31 -95 -57 -112 -74 -134 -82 -236 -85 -49
-2 -88 0 -86 4 7 11 -140 20 -166 10 -34 -13 -67 -43 -80 -73 -54 -119 -122
-182 -231 -209 -64 -16 -116 -61 -130 -113 -6 -23 -13 -81 -15 -129 -4 -102
-25 -161 -72 -197 -17 -13 -29 -28 -25 -34 3 -6 1 -7 -5 -3 -14 8 -106 -55
-150 -103 -18 -20 -37 -54 -43 -76 -10 -37 -6 -106 8 -129 24 -39 5 -122 -47
-208 -17 -26 -30 -50 -30 -53 0 -3 13 -5 28 -5 30 0 203 -30 287 -50 139 -33
451 -133 595 -190 30 -12 75 -30 100 -39 25 -9 47 -19 48 -23 2 -5 10 -8 18
-8 8 0 22 -4 32 -10 9 -5 40 -19 67 -31 71 -30 191 -86 249 -116 40 -20 53
-23 73 -14 34 15 43 13 13 -3 -24 -14 -23 -15 58 -54 l83 -40 47 15 c139 44
477 126 647 157 132 24 336 48 465 54 l155 7 3 60 c2 33 -1 95 -7 137 -9 70
-17 89 -79 191 l-69 112 14 110 c20 162 4 192 -150 299 -38 25 -73 44 -78 41
-5 -3 -6 1 -3 9 3 9 1 16 -5 16 -22 0 -43 77 -51 185 -13 171 -31 198 -170
241 -59 18 -101 43 -138 84 -18 18 -22 20 -18 7 4 -11 2 -16 -5 -12 -6 4 -8
13 -5 21 3 8 -6 36 -21 62 -39 71 -47 82 -56 82 -4 0 -5 -4 -2 -10 3 -5 1 -10
-5 -10 -6 0 -9 8 -6 18 11 32 -56 47 -149 33 -107 -16 -215 -14 -260 4 -20 9
-59 32 -86 51 -27 19 -55 32 -61 28 -6 -4 -8 -3 -5 3 9 14 -65 53 -99 52 -16
0 -39 -4 -51 -9z m175 -154 c32 -19 -43 -89 -109 -101 -41 -8 -98 16 -136 57
-24 25 -20 42 12 51 27 8 218 2 233 -7z m398 -117 c33 -20 76 -40 95 -44 56
-12 71 -23 59 -45 -14 -27 -73 -43 -127 -35 -66 10 -111 55 -122 121 -7 49 -7
51 13 46 12 -3 48 -22 82 -43z m-970 26 c4 -8 10 -13 14 -10 14 9 -13 -90 -28
-101 -9 -7 -12 -16 -7 -24 5 -9 4 -11 -4 -6 -6 4 -18 3 -25 -3 -24 -20 -99
-24 -139 -8 -51 22 -49 48 6 70 74 31 125 59 143 78 21 23 33 24 40 4z m605
-147 c15 -10 62 -24 105 -31 88 -15 107 -31 78 -66 -39 -47 -109 -64 -167 -42
-39 15 -71 68 -73 122 -1 52 5 54 57 17z m-267 0 c7 -32 2 -97 -6 -92 -9 6
-39 -26 -34 -35 3 -4 -3 -7 -12 -8 -9 -1 -39 -5 -67 -8 -40 -5 -56 -2 -83 14
-32 21 -61 65 -49 77 3 3 39 12 79 20 41 8 91 23 113 34 49 25 54 25 59 -2z
m975 -146 c11 -20 31 -50 46 -67 50 -57 78 -96 72 -102 -4 -3 -25 -9 -47 -13
-22 -4 -38 -5 -35 -2 7 7 -66 32 -77 26 -4 -3 -5 1 -2 9 3 8 -1 21 -9 28 -31
31 -30 155 2 162 23 5 29 0 50 -41z m-1684 8 c9 -17 13 -35 10 -39 -3 -5 -1
-11 5 -13 5 -2 -1 -26 -14 -54 -35 -75 -94 -106 -163 -88 -33 9 -29 25 16 67
22 21 52 62 66 91 15 30 29 57 32 60 14 14 34 4 48 -24z m1424 -99 c8 -7 34
-22 58 -32 56 -24 55 -45 -2 -69 -49 -21 -87 -20 -134 4 -50 26 -65 57 -58
126 7 86 12 89 70 33 28 -26 57 -54 66 -62z m-1075 67 c19 -73 -1 -137 -54
-177 -18 -13 -30 -19 -27 -14 4 6 -10 10 -36 10 -31 0 -37 -2 -22 -8 11 -4 14
-8 7 -8 -8 -1 -25 8 -39 19 -14 11 -31 20 -38 20 -14 0 -28 27 -20 40 2 4 19
13 37 21 39 16 47 22 106 77 51 47 77 53 86 20z m-660 -451 c40 -52 37 -121
-8 -173 -19 -22 -42 -40 -52 -41 -11 -1 -33 -4 -51 -6 -20 -3 -34 1 -37 9 -3
7 -2 14 2 16 18 8 62 91 83 156 13 39 27 72 31 72 4 0 18 -15 32 -33z m2296
-34 c14 -34 37 -78 52 -99 41 -59 40 -78 -2 -82 -43 -3 -93 26 -121 70 -15 25
-19 45 -16 85 4 53 29 97 51 90 6 -2 22 -31 36 -64z m226 -518 c18 -44 18
-164 -1 -188 -20 -27 -51 -13 -66 30 -17 51 -17 156 0 176 23 28 51 21 67 -18z"/>
<path d="M3898 5938 c-50 -46 -85 -133 -72 -183 8 -32 24 -32 62 0 52 44 85
141 62 184 -14 27 -21 26 -52 -1z"/>
<path d="M6410 5950 c-36 -23 -2 -137 59 -194 32 -31 53 -27 64 13 3 15 -1 18
-19 17 -13 0 -24 -4 -24 -8 0 -5 -5 -8 -10 -8 -6 0 -5 8 2 20 8 12 15 15 19 8
10 -15 29 -1 29 22 0 10 -7 25 -15 33 -8 8 -12 17 -10 19 6 5 -64 88 -73 88
-4 0 -14 -4 -22 -10z"/>
<path d="M3610 4936 c0 -7 9 -68 21 -135 43 -254 146 -490 307 -703 41 -54 51
-56 146 -32 166 42 529 150 671 200 88 30 225 78 304 105 79 27 146 51 149 53
10 10 -402 200 -593 273 -348 134 -633 213 -875 243 -111 13 -130 13 -130 -4z"/>
<path d="M6385 4574 c-185 -20 -400 -60 -624 -115 -113 -28 -210 -53 -217 -57
-7 -4 64 -50 174 -111 436 -244 577 -321 584 -321 13 0 138 152 194 236 57 86
132 236 164 328 l19 56 -87 -1 c-48 -1 -141 -7 -207 -15z"/>
<path d="M5085 4259 c-320 -111 -788 -258 -937 -295 -38 -9 -68 -19 -67 -23 0
-3 34 -35 75 -71 197 -171 448 -293 724 -351 154 -32 430 -33 585 -1 266 55
544 185 704 328 l44 40 -64 33 c-60 32 -94 51 -266 150 -228 130 -510 281
-524 280 -8 0 -131 -41 -274 -90z"/>
<path d="M6792 3966 c-179 -220 -486 -451 -757 -568 -284 -123 -548 -178 -855
-178 -521 0 -992 174 -1385 512 -60 53 -135 124 -166 159 -31 35 -71 80 -89
99 l-32 35 32 -60 c78 -143 222 -329 343 -442 291 -271 631 -437 1027 -499
154 -25 419 -22 574 5 516 91 953 370 1242 791 56 82 130 210 121 210 -2 0
-27 -29 -55 -64z"/>
<path d="M4543 2534 c-10 -5 -13 -161 -13 -735 l0 -729 140 0 140 0 0 245 0
245 133 0 132 0 67 -77 c36 -43 75 -87 85 -98 10 -11 76 -86 146 -167 l128
-148 165 0 c90 0 164 3 164 7 0 5 -111 136 -130 153 -15 13 -310 349 -310 353
0 2 19 9 43 16 186 55 290 179 318 378 35 253 -118 477 -368 537 -42 11 -162
16 -443 20 -212 3 -391 3 -397 0z m775 -269 c139 -41 202 -194 138 -330 -28
-60 -46 -77 -111 -107 -46 -21 -65 -23 -260 -25 -115 -1 -226 1 -245 4 l-35 5
3 234 3 234 228 0 c176 0 239 -3 279 -15z"/>
<path d="M590 1800 l0 -731 378 3 377 4 80 27 c257 86 421 290 466 580 13 84
6 222 -17 316 -9 37 -36 109 -61 161 -61 127 -160 228 -284 289 -150 73 -159
74 -571 79 l-368 3 0 -731z m762 442 c236 -94 339 -388 231 -659 -37 -94 -121
-178 -218 -218 -68 -28 -75 -29 -287 -33 l-218 -4 0 472 0 472 218 -4 c196 -4
222 -6 274 -26z"/>
<path d="M2650 1800 l0 -730 550 0 550 0 0 123 c0 129 -6 150 -36 147 -11 -1
-193 -2 -406 -1 l-388 1 0 165 0 165 398 2 397 3 0 124 0 123 -297 -1 c-164
-1 -343 1 -398 5 l-100 7 2 166 3 166 413 3 413 2 -3 128 -3 127 -547 3 -548
2 0 -730z"/>
<path d="M6510 1801 l0 -731 403 0 c434 1 506 7 607 53 118 53 176 117 212
230 52 169 -5 346 -141 433 -33 22 -60 42 -60 45 -1 4 12 12 29 19 36 15 92
75 120 129 42 84 35 229 -16 331 -41 83 -127 153 -235 192 -62 22 -74 23 -491
26 l-428 3 0 -730z m806 464 c109 -41 156 -174 88 -255 -49 -57 -91 -65 -369
-65 l-250 0 -3 160 c-1 87 -1 164 1 170 7 17 482 8 533 -10z m9 -586 c171 -64
211 -233 73 -312 -68 -39 -131 -47 -383 -47 l-235 0 0 190 0 190 245 0 c224 0
249 -2 300 -21z"/>
<path d="M8350 2525 c0 -4 251 -383 461 -698 l99 -147 0 -305 0 -305 140 0
140 0 0 304 0 304 290 421 c160 232 290 424 290 426 0 3 -74 5 -165 5 l-165 0
-93 -142 c-51 -79 -138 -214 -192 -300 -55 -87 -102 -157 -105 -158 -3 0 -50
73 -104 163 -55 89 -138 224 -185 300 l-86 137 -162 0 c-90 0 -163 -2 -163 -5z"/>
<path d="M1877 646 c-155 -56 -198 -268 -76 -370 98 -83 229 -78 322 12 36 35
37 39 37 104 l0 68 -100 0 -100 0 0 -34 c0 -37 15 -46 82 -46 37 0 42 -8 23
-42 -14 -24 -65 -48 -103 -48 -48 0 -101 28 -123 64 -27 44 -26 134 2 170 54
69 148 75 214 15 20 -18 21 -18 50 6 l30 23 -29 31 c-52 54 -151 75 -229 47z"/>
<path d="M2628 646 c-84 -30 -137 -98 -145 -185 -13 -137 83 -242 221 -243
126 -1 226 94 226 217 0 154 -156 263 -302 211z m143 -81 c44 -23 69 -71 69
-132 0 -44 -5 -58 -31 -87 -64 -74 -183 -66 -225 15 -18 37 -18 112 1 150 32
62 121 87 186 54z"/>
<path d="M5035 646 c-54 -20 -121 -92 -135 -147 -50 -184 148 -345 317 -258
25 13 55 36 66 51 l20 27 -24 20 c-31 26 -33 26 -62 -3 -32 -32 -86 -46 -132
-36 -65 15 -105 69 -105 140 0 81 57 140 135 140 36 0 60 -11 116 -52 14 -9
22 -8 43 5 14 10 26 21 26 26 0 13 -52 61 -84 78 -42 22 -133 26 -181 9z"/>
<path d="M6290 446 l0 -214 35 -4 c20 -2 38 -2 40 1 3 2 5 61 5 130 l0 126
131 -138 c72 -75 135 -135 140 -131 5 3 9 101 9 220 l0 214 -45 0 -45 0 0
-127 0 -128 -47 50 c-103 112 -206 215 -214 215 -5 0 -9 -96 -9 -214z"/>
<path d="M3272 438 l3 -213 135 0 c122 0 135 2 134 18 -1 9 -2 26 -3 37 -1 18
-8 20 -91 20 l-90 0 0 175 0 175 -45 0 -45 0 2 -212z"/>
<path d="M3880 441 l0 -208 31 -7 c17 -3 35 -6 40 -6 4 0 9 37 11 83 l3 82 78
3 77 3 0 34 0 34 -77 3 -78 3 0 54 0 53 95 2 95 1 3 38 3 37 -140 0 -141 0 0
-209z"/>
<path d="M5650 441 l0 -208 46 -7 c59 -8 207 -8 228 0 10 4 16 18 16 40 l0 33
-102 3 -103 3 -3 53 -3 52 75 0 76 0 0 35 c0 21 -5 35 -12 36 -7 0 -26 2 -43
3 -16 1 -45 3 -63 4 -33 2 -33 3 -30 45 2 28 8 42 18 43 8 1 52 2 98 3 l82 1
0 35 0 35 -140 0 -140 0 0 -209z"/>
<path d="M6970 615 c0 -34 2 -35 38 -36 20 -1 41 -1 46 0 6 1 20 0 33 -4 23
-5 23 -6 23 -174 l0 -169 33 -5 c17 -2 37 -3 42 -1 6 3 10 68 9 170 -1 188 -3
184 85 184 l51 0 0 35 0 35 -180 0 -180 0 0 -35z"/>
<path d="M7660 440 l0 -210 30 0 c17 0 33 -1 38 -2 4 -2 9 31 12 72 l5 75 31
3 c28 3 36 -4 84 -68 58 -78 70 -87 118 -88 41 -1 40 3 -29 97 -52 72 -52 72
-31 87 52 36 67 124 33 180 -30 49 -74 64 -190 64 l-101 0 0 -210z m205 115
c30 -30 31 -45 4 -79 -19 -24 -27 -27 -73 -24 l-51 3 -3 49 c-5 69 0 76 53 76
35 0 52 -6 70 -25z"/>
<path d="M8340 441 l0 -209 28 -5 c15 -3 79 -4 142 -4 l115 2 3 37 3 37 -103
3 -103 3 0 50 0 50 73 3 72 3 0 34 c0 34 -1 35 -42 36 -24 1 -56 4 -73 8 -27
6 -30 10 -30 46 l0 40 98 0 c53 0 98 3 98 8 1 4 2 14 2 22 0 47 4 45 -143 45
l-140 0 0 -209z"/>
</g>
</svg>
